<?xml version="1.0" encoding="UTF-8" standalone="no"?>
<!-- Created with Inkscape (http://www.inkscape.org/) -->

<svg
   xmlns:dc="http://purl.org/dc/elements/1.1/"
   xmlns:cc="http://creativecommons.org/ns#"
   xmlns:rdf="http://www.w3.org/1999/02/22-rdf-syntax-ns#"
   xmlns:svg="http://www.w3.org/2000/svg"
   xmlns="http://www.w3.org/2000/svg"
   xmlns:sodipodi="http://sodipodi.sourceforge.net/DTD/sodipodi-0.dtd"
   xmlns:inkscape="http://www.inkscape.org/namespaces/inkscape"
   width="85"
   height="35.999996"
   id="svg7190"
   version="1.1"
   inkscape:version="0.48.2 r9819"
   sodipodi:docname="sprite.svg"
   inkscape:export-filename="/Users/saman/work_repos/weekend-picks-template/graphic-src/logo.png"
   inkscape:export-xdpi="90"
   inkscape:export-ydpi="90">
  <defs
     id="defs7192" />
  <sodipodi:namedview
     id="base"
     pagecolor="#ffffff"
     bordercolor="#666666"
     borderopacity="1.0"
     inkscape:pageopacity="0.0"
     inkscape:pageshadow="2"
     inkscape:zoom="1"
     inkscape:cx="-7.0958603"
     inkscape:cy="21.302082"
     inkscape:document-units="px"
     inkscape:current-layer="layer1"
     showgrid="false"
     inkscape:window-width="1143"
     inkscape:window-height="829"
     inkscape:window-x="63"
     inkscape:window-y="124"
     inkscape:window-maximized="0"
     inkscape:snap-nodes="false"
     inkscape:snap-bbox="true"
     fit-margin-top="0"
     fit-margin-left="0"
     fit-margin-right="0"
     fit-margin-bottom="0">
    <inkscape:grid
       type="xygrid"
       id="grid7198"
       empspacing="5"
       visible="true"
       enabled="true"
       snapvisiblegridlinesonly="true" />
  </sodipodi:namedview>
  <metadata
     id="metadata7195">
    <rdf:RDF>
      <cc:Work
         rdf:about="">
        <dc:format>image/svg+xml</dc:format>
        <dc:type
           rdf:resource="http://purl.org/dc/dcmitype/StillImage" />
        <dc:title></dc:title>
      </cc:Work>
    </rdf:RDF>
  </metadata>
  <g
     inkscape:label="Layer 1"
     inkscape:groupmode="layer"
     id="layer1"
     transform="translate(0.55,-0.97071064)">
    <path
       sodipodi:nodetypes="scsss"
       inkscape:connector-curvature="0"
       id="path6967-7-4"
       d="m 24.45,13.47071 c 0,6.90356 -12.5,23.499997 -12.5,23.499997 0,0 -12.5,-16.596437 -12.5,-23.499997 0,-6.9035594 5.5965,-12.49999936 12.5,-12.49999936 6.9036,0 12.5,5.59643996 12.5,12.49999936 z"
       style="color:#000000;fill:#d40000;fill-opacity:1;fill-rule:nonzero;stroke:none;stroke-width:1;marker:none;visibility:visible;display:inline;overflow:visible;enable-background:accumulate" />
    <path
       id="path6969-5-88"
       d="m 11.95,4.9707106 -2,5.9999994 -6.5,0 5,5 -2.5,7 6,-4 6,4 -2.5,-7 5,-5 -6,0 z"
       style="color:#000000;fill:#ffffff;fill-opacity:1;fill-rule:nonzero;stroke:none;stroke-width:2;marker:none;visibility:visible;display:inline;overflow:visible;enable-background:accumulate"
       inkscape:connector-curvature="0"
       sodipodi:nodetypes="ccccccccccc" />
    <path
       style="color:#000000;fill:#d40000;fill-opacity:1;fill-rule:nonzero;stroke:none;stroke-width:1;marker:none;visibility:visible;display:inline;overflow:visible;enable-background:accumulate"
       d="m 54.45,13.47071 c 0,6.90356 -12.5,23.499997 -12.5,23.499997 0,0 -12.5,-16.596437 -12.5,-23.499997 0,-6.9035594 5.5965,-12.49999936 12.5,-12.49999936 6.9036,0 12.5,5.59643996 12.5,12.49999936 z"
       id="path7658"
       inkscape:connector-curvature="0"
       sodipodi:nodetypes="scsss" />
    <path
       sodipodi:nodetypes="ccccccccccc"
       inkscape:connector-curvature="0"
       style="color:#000000;fill:#ffffff;fill-opacity:1;fill-rule:nonzero;stroke:none;stroke-width:2;marker:none;visibility:visible;display:inline;overflow:visible;enable-background:accumulate"
       d="m 41.95,4.9707106 -2,5.9999994 -6.5,0 5,5 -2.5,7 6,-4 6,4 -2.5,-7 5,-5 -6,0 z"
       id="path7660" />
    <path
       sodipodi:nodetypes="scsss"
       inkscape:connector-curvature="0"
       id="path7662"
       d="m 84.45,13.47071 c 0,6.90356 -12.5,23.499997 -12.5,23.499997 0,0 -12.5,-16.596437 -12.5,-23.499997 0,-6.9035594 5.5965,-12.49999936 12.5,-12.49999936 6.9036,0 12.5,5.59643996 12.5,12.49999936 z"
       style="color:#000000;fill:#d40000;fill-opacity:1;fill-rule:nonzero;stroke:none;stroke-width:1;marker:none;visibility:visible;display:inline;overflow:visible;enable-background:accumulate" />
    <path
       id="path7664"
       d="m 71.95,4.9707106 -2,5.9999994 -6.5,0 5,5 -2.5,7 6,-4 6,4 -2.5,-7 5,-5 -6,0 z"
       style="color:#000000;fill:#ffffff;fill-opacity:1;fill-rule:nonzero;stroke:none;stroke-width:2;marker:none;visibility:visible;display:inline;overflow:visible;enable-background:accumulate"
       inkscape:connector-curvature="0"
       sodipodi:nodetypes="ccccccccccc" />
  </g>
</svg>
