<?xml version="1.0" encoding="UTF-8" standalone="no"?>
<!-- Created with Inkscape (http://www.inkscape.org/) -->

<svg
   xmlns:dc="http://purl.org/dc/elements/1.1/"
   xmlns:cc="http://creativecommons.org/ns#"
   xmlns:rdf="http://www.w3.org/1999/02/22-rdf-syntax-ns#"
   xmlns:svg="http://www.w3.org/2000/svg"
   xmlns="http://www.w3.org/2000/svg"
   xmlns:sodipodi="http://sodipodi.sourceforge.net/DTD/sodipodi-0.dtd"
   xmlns:inkscape="http://www.inkscape.org/namespaces/inkscape"
   width="744.09448819"
   height="1052.3622047"
   id="svg7190"
   version="1.1"
   inkscape:version="0.48.2 r9819"
   sodipodi:docname="New document 21">
  <defs
     id="defs7192" />
  <sodipodi:namedview
     id="base"
     pagecolor="#ffffff"
     bordercolor="#666666"
     borderopacity="1.0"
     inkscape:pageopacity="0.0"
     inkscape:pageshadow="2"
     inkscape:zoom="22.4"
     inkscape:cx="14.777581"
     inkscape:cy="1025.3362"
     inkscape:document-units="px"
     inkscape:current-layer="layer1"
     showgrid="true"
     inkscape:window-width="1143"
     inkscape:window-height="829"
     inkscape:window-x="63"
     inkscape:window-y="124"
     inkscape:window-maximized="0">
    <inkscape:grid
       type="xygrid"
       id="grid7198" />
  </sodipodi:namedview>
  <metadata
     id="metadata7195">
    <rdf:RDF>
      <cc:Work
         rdf:about="">
        <dc:format>image/svg+xml</dc:format>
        <dc:type
           rdf:resource="http://purl.org/dc/dcmitype/StillImage" />
        <dc:title></dc:title>
      </cc:Work>
    </rdf:RDF>
  </metadata>
  <g
     inkscape:label="Layer 1"
     inkscape:groupmode="layer"
     id="layer1">
    <g
       transform="translate(36.33887,-267.19141)"
       id="g7140">
      <path
         style="color:#000000;fill:#d40000;fill-opacity:1;fill-rule:nonzero;stroke:none;stroke-width:1;marker:none;visibility:visible;display:inline;overflow:visible;enable-background:accumulate"
         d="m -11.33887,297.05359 c 0,6.90356 -12.5,23.5 -12.5,23.5 0,0 -12.5,-16.59644 -12.5,-23.5 0,-6.90356 5.59644,-12.5 12.5,-12.5 6.90356,0 12.5,5.59644 12.5,12.5 z"
         id="path3645-1"
         inkscape:connector-curvature="0"
         sodipodi:nodetypes="scsss" />
      <path
         sodipodi:nodetypes="ccccccccccc"
         inkscape:connector-curvature="0"
         style="color:#000000;fill:#ffffff;fill-opacity:1;fill-rule:nonzero;stroke:none;stroke-width:2;marker:none;visibility:visible;display:inline;overflow:visible;enable-background:accumulate"
         d="m -23.83887,288.55359 -2,6 -6.5,0 5,5 -2.5,7 6,-4 6,4 -2.5,-7 5,-5 -6,0 z"
         id="path4749-2-8-2" />
      <path
         sodipodi:nodetypes="scsss"
         inkscape:connector-curvature="0"
         id="path6963-4"
         d="m 18.66113,297.05359 c 0,6.90356 -12.5,23.5 -12.5,23.5 0,0 -12.5,-16.59644 -12.5,-23.5 0,-6.90356 5.59644,-12.5 12.5,-12.5 6.90356,0 12.5,5.59644 12.5,12.5 z"
         style="color:#000000;fill:#d40000;fill-opacity:1;fill-rule:nonzero;stroke:none;stroke-width:1;marker:none;visibility:visible;display:inline;overflow:visible;enable-background:accumulate" />
      <path
         id="path6965-6"
         d="m 6.16113,288.55359 -2,6 -6.5,0 5,5 -2.5,7 6,-4 6,4 -2.5,-7 5,-5 -6,0 z"
         style="color:#000000;fill:#ffffff;fill-opacity:1;fill-rule:nonzero;stroke:none;stroke-width:2;marker:none;visibility:visible;display:inline;overflow:visible;enable-background:accumulate"
         inkscape:connector-curvature="0"
         sodipodi:nodetypes="ccccccccccc" />
      <path
         style="color:#000000;fill:#d40000;fill-opacity:1;fill-rule:nonzero;stroke:none;stroke-width:1;marker:none;visibility:visible;display:inline;overflow:visible;enable-background:accumulate"
         d="m 48.66113,297.05359 c 0,6.90356 -12.5,23.5 -12.5,23.5 0,0 -12.5,-16.59644 -12.5,-23.5 0,-6.90356 5.59644,-12.5 12.5,-12.5 6.90356,0 12.5,5.59644 12.5,12.5 z"
         id="path6967-7"
         inkscape:connector-curvature="0"
         sodipodi:nodetypes="scsss" />
      <path
         sodipodi:nodetypes="ccccccccccc"
         inkscape:connector-curvature="0"
         style="color:#000000;fill:#ffffff;fill-opacity:1;fill-rule:nonzero;stroke:none;stroke-width:2;marker:none;visibility:visible;display:inline;overflow:visible;enable-background:accumulate"
         d="m 36.16113,288.55359 -2,6 -6.5,0 5,5 -2.5,7 6,-4 6,4 -2.5,-7 5,-5 -6,0 z"
         id="path6969-5" />
    </g>
  </g>
</svg>
